<?xml version="1.0" standalone="no"?>
<!DOCTYPE svg PUBLIC "-//W3C//DTD SVG 20010904//EN"
 "http://www.w3.org/TR/2001/REC-SVG-20010904/DTD/svg10.dtd">
<svg version="1.0" xmlns="http://www.w3.org/2000/svg"
 width="260.000000pt" height="100.000000pt" viewBox="0 0 260.000000 100.000000"
 preserveAspectRatio="xMidYMid meet">
<metadata>
Created by potrace 1.15, written by Peter Selinger 2001-2017
</metadata>
<g transform="translate(0.000000,100.000000) scale(0.100000,-0.100000)"
fill="#000000" stroke="none">
<path d="M1244 865 c-4 -9 -28 -106 -54 -216 -26 -110 -52 -205 -59 -212 -13
-13 -186 -23 -226 -13 -16 4 -25 13 -25 27 0 40 33 154 48 167 10 7 49 12 108
12 l92 0 11 44 c6 25 11 47 11 50 0 3 -82 6 -182 6 -250 0 -250 0 -299 -195
-41 -157 -39 -184 14 -204 37 -14 509 -14 559 -1 74 21 87 55 195 528 5 22 4
22 -91 22 -78 0 -98 -3 -102 -15z"/>
<path d="M1420 543 c-25 -106 -53 -196 -63 -210 -31 -38 -57 -47 -161 -53
l-98 -5 -23 -62 -22 -63 174 0 c197 0 225 8 282 77 36 43 43 66 104 321 l44
182 -96 0 -96 0 -45 -187z"/>
<path d="M1670 543 c-24 -104 -45 -196 -48 -205 -4 -16 5 -18 91 -18 l95 0 46
193 c25 105 46 198 46 205 0 9 -25 12 -93 12 l-93 0 -44 -187z"/>
</g>
</svg>
